<svg xmlns="http://www.w3.org/2000/svg" version="1.1" xmlns:xlink="http://www.w3.org/1999/xlink" xmlns:svgjs="http://svgjs.dev/svgjs" width="1440" height="560" preserveAspectRatio="none" viewBox="0 0 1440 560">
    <g mask="url(&quot;#SvgjsMask1049&quot;)" fill="none">
        <path d="M146.42 153.71 a120.95 120.95 0 1 0 241.9 0 a120.95 120.95 0 1 0 -241.9 0z" fill="rgba(0, 144, 0, 0.5)" class="triangle-float3"></path>
        <path d="M646.12 295.66 a110.04 110.04 0 1 0 220.08 0 a110.04 110.04 0 1 0 -220.08 0z" fill="rgba(0, 144, 0, 0.5)" class="triangle-float1"></path>
        <path d="M1191.36 292.89 a144.76 144.76 0 1 0 289.52 0 a144.76 144.76 0 1 0 -289.52 0z" fill="rgba(0, 144, 0, 0.5)" class="triangle-float3"></path>
        <path d="M580.93 184.05 a177.3 177.3 0 1 0 354.6 0 a177.3 177.3 0 1 0 -354.6 0z" fill="rgba(0, 144, 0, 0.5)" class="triangle-float3"></path>
        <path d="M-0.91 442.57 a170.15 170.15 0 1 0 340.3 0 a170.15 170.15 0 1 0 -340.3 0z" fill="rgba(0, 144, 0, 0.5)" class="triangle-float2"></path>
        <path d="M787.99 471.79 a126.12 126.12 0 1 0 252.24 0 a126.12 126.12 0 1 0 -252.24 0z" fill="rgba(0, 144, 0, 0.5)" class="triangle-float1"></path>
        <path d="M-101.23 417.86 a101.27 101.27 0 1 0 202.54 0 a101.27 101.27 0 1 0 -202.54 0z" fill="rgba(0, 144, 0, 0.5)" class="triangle-float2"></path>
    </g>
    <defs>
        <mask id="SvgjsMask1049">
            <rect width="1440" height="560" fill="#ffffff"></rect>
        </mask>
        <style>
            @keyframes float1 {
                    0%{transform: translate(0, 0)}
                    50%{transform: translate(-10px, 0)}
                    100%{transform: translate(0, 0)}
                }

                .triangle-float1 {
                    animation: float1 5s infinite;
                }

                @keyframes float2 {
                    0%{transform: translate(0, 0)}
                    50%{transform: translate(-5px, -5px)}
                    100%{transform: translate(0, 0)}
                }

                .triangle-float2 {
                    animation: float2 4s infinite;
                }

                @keyframes float3 {
                    0%{transform: translate(0, 0)}
                    50%{transform: translate(0, -10px)}
                    100%{transform: translate(0, 0)}
                }

                .triangle-float3 {
                    animation: float3 6s infinite;
                }
        </style>
    </defs>
</svg>